<svg width="9" height="9" viewBox="0 0 9 9" fill="none" xmlns="http://www.w3.org/2000/svg">
<path d="M1.51913 0.480871C1.23242 0.194165 0.767578 0.194165 0.480871 0.480871C0.194165 0.767578 0.194165 1.23242 0.480871 1.51913L1.51913 0.480871ZM8 8.73416C8.40547 8.73416 8.73416 8.40547 8.73416 8L8.73416 1.39257C8.73416 0.987107 8.40547 0.658414 8 0.658413C7.59454 0.658413 7.26584 0.987107 7.26584 1.39257L7.26584 7.26584L1.39257 7.26584C0.987107 7.26584 0.658413 7.59454 0.658413 8C0.658414 8.40547 0.987107 8.73416 1.39257 8.73416L8 8.73416ZM0.480871 1.51913L7.48087 8.51913L8.51913 7.48087L1.51913 0.480871L0.480871 1.51913Z" fill="white"/>
</svg>
